# This file uses centimeters as units for non-parametric coordinates.

mtllib Landscape.mtl
g default
v 9.573464 0.223182 -0.773601
v 25.573463 0.223182 -0.773601
v 9.573464 0.223182 -27.341763
v 25.573463 0.223182 -27.341763
v 9.573464 0.223182 -14.057682
v 17.573463 0.263502 -0.773601
v 25.573463 0.223182 -14.057682
v 17.573463 0.223182 -27.341763
v 17.573463 0.189944 -14.057682
v 13.573463 0.226493 -7.415641
v 21.573463 0.226493 -7.415641
v 21.573463 0.153762 -20.699722
v 13.573465 0.223182 -20.699722
v 17.573465 0.263502 -7.415641
v 21.573465 0.128803 -14.057682
v 17.573463 0.153762 -20.699722
v 13.573465 0.272646 -14.057681
v 13.573464 0.226493 -0.773601
v 21.573463 0.226493 -0.773601
v 25.573463 0.223182 -7.415641
v 25.573463 0.223182 -20.699720
v 21.573463 0.223182 -27.341763
v 13.573464 0.223182 -27.341763
v 9.573464 0.223182 -20.699720
v 9.573464 0.223182 -7.415641
v 11.573465 0.223182 -4.094621
v 15.573464 0.112683 -4.094621
v 15.573463 0.198666 -10.736662
v 11.573464 0.223182 -10.736661
v 19.573463 0.298040 -4.094621
v 23.573465 0.223182 -4.094621
v 23.573462 0.223182 -10.736661
v 19.573463 0.195178 -10.736662
v 19.573463 0.191921 -17.378702
v 23.573463 0.223182 -17.378702
v 23.573465 0.223182 -24.020742
v 19.573463 0.219924 -24.020741
v 11.573464 0.223182 -17.378702
v 15.573464 0.298256 -17.378702
v 15.573463 0.223182 -24.020741
v 11.573465 0.223182 -24.020741
v 13.573464 0.196558 -4.094621
v 15.573463 0.249471 -7.415641
v 13.573463 0.219654 -10.736662
v 11.573464 0.223182 -7.415641
v 21.573465 0.246606 -4.094621
v 23.573463 0.223182 -7.415641
v 21.573463 0.219654 -10.736662
v 19.573463 0.249471 -7.415641
v 21.573463 0.219654 -17.378702
v 23.573463 0.223182 -20.699720
v 21.573463 0.223182 -24.020742
v 19.573465 0.059871 -20.699722
v 13.573463 0.262196 -17.378702
v 15.573463 0.225291 -20.699722
v 13.573464 0.223182 -24.020742
v 11.573464 0.223182 -20.699722
v 17.573463 0.180232 -10.736661
v 17.573463 0.274196 -4.094621
v 19.573463 0.143441 -14.057682
v 23.573465 0.223182 -14.057682
v 17.573463 0.222947 -17.378702
v 17.573463 0.223182 -24.020741
v 15.573464 0.320760 -14.057682
v 11.573464 0.223182 -14.057682
v 15.573463 0.249471 -0.773601
v 11.573464 0.223182 -0.773601
v 19.573463 0.249471 -0.773601
v 23.573465 0.223182 -0.773601
v 25.573463 0.223182 -10.736661
v 25.573463 0.223182 -4.094621
v 25.573463 0.223182 -17.378702
v 25.573463 0.223182 -24.020742
v 19.573463 0.223182 -27.341763
v 23.573465 0.223182 -27.341763
v 15.573463 0.223182 -27.341763
v 11.573464 0.223182 -27.341763
v 9.573464 0.223182 -17.378702
v 9.573464 0.223182 -24.020742
v 9.573464 0.223182 -10.736661
v 9.573464 0.223182 -4.094621
vt 0.000000 0.000000
vt 1.000000 0.000000
vt 0.000000 1.000000
vt 1.000000 1.000000
vt 0.500000 0.500000
vt 0.500000 0.000000
vt 1.000000 0.500000
vt 0.500000 1.000000
vt 0.000000 0.500000
vt 0.250000 0.250000
vt 0.750000 0.250000
vt 0.750000 0.750000
vt 0.250000 0.750000
vt 0.500000 0.250000
vt 0.750000 0.500000
vt 0.500000 0.750000
vt 0.250000 0.500000
vt 0.250000 0.000000
vt 0.750000 0.000000
vt 1.000000 0.250000
vt 1.000000 0.750000
vt 0.750000 1.000000
vt 0.250000 1.000000
vt 0.000000 0.750000
vt 0.000000 0.250000
vt 0.125000 0.125000
vt 0.375000 0.125000
vt 0.375000 0.375000
vt 0.125000 0.375000
vt 0.625000 0.125000
vt 0.875000 0.125000
vt 0.875000 0.375000
vt 0.625000 0.375000
vt 0.625000 0.625000
vt 0.875000 0.625000
vt 0.875000 0.875000
vt 0.625000 0.875000
vt 0.125000 0.625000
vt 0.375000 0.625000
vt 0.375000 0.875000
vt 0.125000 0.875000
vt 0.250000 0.125000
vt 0.375000 0.250000
vt 0.250000 0.375000
vt 0.125000 0.250000
vt 0.750000 0.125000
vt 0.875000 0.250000
vt 0.750000 0.375000
vt 0.625000 0.250000
vt 0.750000 0.625000
vt 0.875000 0.750000
vt 0.750000 0.875000
vt 0.625000 0.750000
vt 0.250000 0.625000
vt 0.375000 0.750000
vt 0.250000 0.875000
vt 0.125000 0.750000
vt 0.500000 0.375000
vt 0.500000 0.125000
vt 0.625000 0.500000
vt 0.875000 0.500000
vt 0.500000 0.625000
vt 0.500000 0.875000
vt 0.375000 0.500000
vt 0.125000 0.500000
vt 0.375000 0.000000
vt 0.125000 0.000000
vt 0.625000 0.000000
vt 0.875000 0.000000
vt 1.000000 0.375000
vt 1.000000 0.125000
vt 1.000000 0.625000
vt 1.000000 0.875000
vt 0.625000 1.000000
vt 0.875000 1.000000
vt 0.375000 1.000000
vt 0.125000 1.000000
vt 0.000000 0.625000
vt 0.000000 0.875000
vt 0.000000 0.375000
vt 0.000000 0.125000
vn 0.000000 1.000000 0.000000
vn 0.002914 0.999993 -0.002253
vn 0.002914 0.999996 -0.000000
vn 0.000000 1.000000 0.000000
vn 0.010525 0.999835 -0.014802
vn 0.010526 0.999945 -0.000000
vn 0.005152 0.999974 0.004975
vn 0.001471 0.999999 0.000869
vn 0.000000 1.000000 -0.000000
vn -0.014333 0.999655 -0.022034
vn -0.014314 0.999898 -0.000000
vn -0.023163 0.999719 -0.005030
vn -0.023161 0.999732 0.000000
vn -0.011367 0.999906 -0.007707
vn -0.007018 0.999968 0.003804
vn 0.007786 0.999960 0.004334
vn -0.004677 0.999970 0.006158
vn 0.011518 0.999910 -0.006843
vn 0.029014 0.999556 0.006840
vn 0.015245 0.999827 0.010699
vn -0.015355 0.999858 0.006951
vn -0.002858 0.999994 0.001737
vn 0.000000 1.000000 0.000000
vn -0.008401 0.999963 0.001601
vn 0.000000 1.000000 0.000000
vn 0.008075 0.999921 0.009631
vn 0.008074 0.999967 -0.000000
vn 0.012642 0.999898 0.006684
vn 0.012643 0.999920 -0.000000
vn 0.006214 0.999963 -0.005900
vn 0.003887 0.999917 -0.012294
vn 0.003342 0.999993 0.001514
vn 0.003342 0.999995 -0.000000
vn 0.000000 1.000000 0.000000
vn 0.000000 1.000000 0.000000
vn 0.000000 1.000000 0.000000
vn 0.001657 0.999998 -0.001014
vn -0.006132 0.999974 -0.003677
vn -0.006841 0.999912 -0.011343
vn -0.000000 1.000000 -0.000000
vn 0.000000 1.000000 -0.000000
vn -0.012237 0.999925 0.000000
vn -0.013667 0.999907 -0.000123
vn 0.001206 0.999895 -0.014426
vn 0.005383 0.999985 0.001362
vn 0.004233 0.999968 -0.006716
vn 0.034692 0.999353 -0.009457
vn -0.019095 0.999817 -0.001266
vn -0.022568 0.999745 0.001320
vn 0.000206 0.999997 0.002246
vn 0.027517 0.999620 -0.001751
vn -0.010678 0.999943 0.000939
vn 0.000000 1.000000 0.000000
vn 0.000000 1.000000 -0.000000
vn -0.008898 0.999960 0.000133
vn -0.004339 0.999987 0.002613
vn -0.010613 0.999879 0.011371
vn -0.000000 1.000000 -0.000000
vn -0.000000 1.000000 0.000000
vn -0.000000 1.000000 0.000000
vn -0.000407 1.000000 0.000245
vn 0.000000 0.999847 0.017517
vn 0.010745 0.999879 0.011292
vn -0.000000 1.000000 0.000490
vn 0.000407 1.000000 0.000245
vn -0.007968 0.999967 -0.001862
vn 0.000000 1.000000 -0.000000
vn -0.015612 0.999851 -0.007316
vn -0.004956 0.999971 -0.005762
vn -0.002438 0.999996 -0.001468
vn 0.000000 1.000000 0.000000
vn 0.014411 0.999842 -0.010406
vn 0.011133 0.999913 -0.007112
vn 0.004339 0.999988 0.002454
vn -0.000132 1.000000 -0.000079
vn 0.000000 1.000000 0.000000
vn 0.000000 1.000000 0.000000
vn -0.000000 1.000000 -0.000000
vn 0.000000 1.000000 0.000000
vn -0.000000 1.000000 0.000000
vn 0.000000 1.000000 0.000000
s 1
g Street
usemtl RoadSidewalkSetup3:initialShadingGroup
f 1/1/1 67/67/2 26/26/3 81/81/4
f 67/67/2 18/18/5 42/42/6 26/26/3
f 26/26/3 42/42/6 10/10/7 45/45/8
f 81/81/4 26/26/3 45/45/8 25/25/9
f 18/18/5 66/66/10 27/27/11 42/42/6
f 66/66/10 6/6/12 59/59/13 27/27/11
f 27/27/11 59/59/13 14/14/14 43/43/15
f 42/42/6 27/27/11 43/43/15 10/10/7
f 10/10/7 43/43/15 28/28/16 44/44/17
f 43/43/15 14/14/14 58/58/18 28/28/16
f 28/28/16 58/58/18 9/5/19 64/64/20
f 44/44/17 28/28/16 64/64/20 17/17/21
f 25/25/9 45/45/8 29/29/22 80/80/23
f 45/45/8 10/10/7 44/44/17 29/29/22
f 29/29/22 44/44/17 17/17/21 65/65/24
f 80/80/23 29/29/22 65/65/24 5/9/25
f 6/6/12 68/68/26 30/30/27 59/59/13
f 68/68/26 19/19/28 46/46/29 30/30/27
f 30/30/27 46/46/29 11/11/30 49/49/31
f 59/59/13 30/30/27 49/49/31 14/14/14
f 19/19/28 69/69/32 31/31/33 46/46/29
f 69/69/32 2/2/34 71/71/35 31/31/33
f 31/31/33 71/71/35 20/20/36 47/47/37
f 46/46/29 31/31/33 47/47/37 11/11/30
f 11/11/30 47/47/37 32/32/38 48/48/39
f 47/47/37 20/20/36 70/70/40 32/32/38
f 32/32/38 70/70/40 7/7/41 61/61/42
f 48/48/39 32/32/38 61/61/42 15/15/43
f 14/14/14 49/49/31 33/33/44 58/58/18
f 49/49/31 11/11/30 48/48/39 33/33/44
f 33/33/44 48/48/39 15/15/43 60/60/45
f 58/58/18 33/33/44 60/60/45 9/5/19
f 9/5/19 60/60/45 34/34/46 62/62/47
f 60/60/45 15/15/43 50/50/48 34/34/46
f 34/34/46 50/50/48 12/12/49 53/53/50
f 62/62/47 34/34/46 53/53/50 16/16/51
f 15/15/43 61/61/42 35/35/52 50/50/48
f 61/61/42 7/7/41 72/72/53 35/35/52
f 35/35/52 72/72/53 21/21/54 51/51/55
f 50/50/48 35/35/52 51/51/55 12/12/49
f 12/12/49 51/51/55 36/36/56 52/52/57
f 51/51/55 21/21/54 73/73/58 36/36/56
f 36/36/56 73/73/58 4/4/59 75/75/60
f 52/52/57 36/36/56 75/75/60 22/22/61
f 16/16/51 53/53/50 37/37/62 63/63/63
f 53/53/50 12/12/49 52/52/57 37/37/62
f 37/37/62 52/52/57 22/22/61 74/74/64
f 63/63/63 37/37/62 74/74/64 8/8/65
f 5/9/25 65/65/24 38/38/66 78/78/67
f 65/65/24 17/17/21 54/54/68 38/38/66
f 38/38/66 54/54/68 13/13/69 57/57/70
f 78/78/67 38/38/66 57/57/70 24/24/71
f 17/17/21 64/64/20 39/39/72 54/54/68
f 64/64/20 9/5/19 62/62/47 39/39/72
f 39/39/72 62/62/47 16/16/51 55/55/73
f 54/54/68 39/39/72 55/55/73 13/13/69
f 13/13/69 55/55/73 40/40/74 56/56/75
f 55/55/73 16/16/51 63/63/63 40/40/74
f 40/40/74 63/63/63 8/8/65 76/76/76
f 56/56/75 40/40/74 76/76/76 23/23/77
f 24/24/71 57/57/70 41/41/78 79/79/79
f 57/57/70 13/13/69 56/56/75 41/41/78
f 41/41/78 56/56/75 23/23/77 77/77/80
f 79/79/79 41/41/78 77/77/80 3/3/81
