# This file uses centimeters as units for non-parametric coordinates.

mtllib Dango_Bush.mtl
g default
v 19.519907 -0.213368 0.031159
v 18.756849 -0.204685 -0.120623
v 18.655434 -0.213368 0.031158
v 18.619820 -0.222820 0.210196
v 18.655434 -0.232435 0.389235
v 18.756849 -0.240342 0.541016
v 18.908630 -0.245695 0.642433
v 19.087669 -0.247421 0.678046
v 19.266708 -0.245695 0.642433
v 19.418489 -0.240342 0.541016
v 19.519907 -0.232435 0.389235
v 19.555519 -0.222820 0.210196
v 19.637802 -0.143432 -0.017676
v 18.666616 -0.133017 -0.210857
v 18.537535 -0.143432 -0.017676
v 18.492208 -0.154629 0.210196
v 18.537537 -0.165927 0.438069
v 18.666616 -0.175335 0.631250
v 18.859797 -0.181480 0.760330
v 19.087669 -0.183548 0.805656
v 19.315542 -0.181480 0.760330
v 19.508722 -0.175335 0.631250
v 19.637802 -0.165927 0.438069
v 19.683130 -0.154629 0.210196
v 19.734558 -0.056635 -0.057753
v 18.592562 -0.046163 -0.284911
v 18.440783 -0.056635 -0.057754
v 18.387482 -0.069368 0.210196
v 18.440783 -0.081354 0.478146
v 18.592562 -0.091258 0.705303
v 18.819719 -0.097907 0.857085
v 19.087669 -0.099951 0.910383
v 19.355619 -0.097907 0.857085
v 19.582777 -0.091258 0.705303
v 19.734558 -0.081354 0.478146
v 19.787857 -0.069368 0.210197
v 19.806454 0.043811 -0.087533
v 18.537537 0.054838 -0.339937
v 18.368885 0.043811 -0.087534
v 18.309664 0.031218 0.210196
v 18.368885 0.019122 0.507926
v 18.537537 0.009115 0.760330
v 18.789940 0.002376 0.928980
v 19.087669 0.000313 0.988202
v 19.385399 0.002376 0.928980
v 19.637802 0.009115 0.760330
v 19.806454 0.019122 0.507926
v 19.865675 0.031218 0.210196
v 19.850727 0.155415 -0.105871
v 18.503651 0.166144 -0.373822
v 18.324614 0.155415 -0.105872
v 18.261744 0.143324 0.210196
v 18.324612 0.131663 0.526265
v 18.503651 0.122136 0.794215
v 18.771601 0.116028 0.973253
v 19.087669 0.113815 1.036123
v 19.403738 0.116028 0.973253
v 19.671686 0.122136 0.794215
v 19.850727 0.131663 0.526265
v 19.913595 0.143324 0.210196
v 19.865675 0.274196 -0.112064
v 18.492210 0.284094 -0.385264
v 18.309664 0.274196 -0.112064
v 18.245562 0.262947 0.210196
v 18.309664 0.252151 0.532457
v 18.492210 0.243349 0.805656
v 18.765409 0.237643 0.988202
v 19.087669 0.235673 1.052304
v 19.409931 0.237643 0.988202
v 19.683130 0.243349 0.805656
v 19.865675 0.252151 0.532457
v 19.929777 0.262947 0.210196
v 19.850727 0.395797 -0.105871
v 18.503651 0.404706 -0.373822
v 18.324614 0.395797 -0.105872
v 18.261744 0.385674 0.210196
v 18.324612 0.375964 0.526265
v 18.503651 0.368049 0.794214
v 18.771601 0.362921 0.973253
v 19.087669 0.361150 1.036123
v 19.403738 0.362921 0.973253
v 19.671686 0.368049 0.794215
v 19.850727 0.375964 0.526265
v 19.913595 0.385674 0.210197
v 19.806454 0.516018 -0.087533
v 18.537537 0.523812 -0.339937
v 18.368885 0.516018 -0.087534
v 18.309664 0.506986 0.210196
v 18.368885 0.498631 0.507926
v 18.537535 0.491676 0.760329
v 18.789940 0.487165 0.928980
v 19.087669 0.485818 0.988202
v 19.385399 0.487165 0.928980
v 19.637802 0.491676 0.760330
v 19.806454 0.498631 0.507926
v 19.865675 0.506986 0.210196
v 19.734558 0.630831 -0.057753
v 19.582777 0.637447 -0.284910
v 19.355619 0.641978 -0.436691
v 19.087669 0.643534 -0.489990
v 18.819719 0.641978 -0.436692
v 18.592564 0.637447 -0.284910
v 18.440783 0.630831 -0.057754
v 18.387482 0.623280 0.210196
v 18.440783 0.616000 0.478146
v 18.592562 0.610038 0.705303
v 18.819719 0.606160 0.857085
v 19.087669 0.604818 0.910383
v 19.355619 0.606160 0.857085
v 19.582777 0.610038 0.705303
v 19.734556 0.616000 0.478146
v 19.787857 0.623280 0.210196
v 19.637802 0.736285 -0.017676
v 19.508722 0.741711 -0.210857
v 19.315542 0.745361 -0.339936
v 19.087669 0.746566 -0.385263
v 18.859797 0.745361 -0.339937
v 18.666616 0.741711 -0.210857
v 18.537535 0.736285 -0.017676
v 18.492208 0.730100 0.210196
v 18.537535 0.724103 0.438069
v 18.666616 0.719168 0.631250
v 18.859797 0.715944 0.760329
v 19.087669 0.714930 0.805656
v 19.315542 0.715944 0.760330
v 19.508722 0.719168 0.631250
v 19.637802 0.724103 0.438069
v 19.683130 0.730100 0.210196
v 19.519907 0.827954 0.031159
v 19.418489 0.831855 -0.120623
v 19.266708 0.834873 -0.222040
v 19.087669 0.835816 -0.257653
v 18.908632 0.834873 -0.222040
v 18.756849 0.831855 -0.120623
v 18.655434 0.827954 0.031158
v 18.619820 0.823199 0.210196
v 18.655432 0.818583 0.389235
v 18.756849 0.814950 0.541016
v 18.908630 0.812190 0.642433
v 19.087669 0.811431 0.678046
v 19.266708 0.812190 0.642433
v 19.418489 0.814950 0.541016
v 19.519907 0.818583 0.389235
v 19.555519 0.823199 0.210196
v 19.385399 0.900291 0.086873
v 19.315540 0.903136 -0.017676
v 19.210993 0.905013 -0.087533
v 19.087669 0.905676 -0.112064
v 18.964346 0.905013 -0.087534
v 18.859797 0.903136 -0.017676
v 18.789940 0.900291 0.086873
v 18.765409 0.897142 0.210196
v 18.789940 0.894030 0.333520
v 18.859797 0.891423 0.438069
v 18.964346 0.889345 0.507926
v 19.087669 0.888739 0.532457
v 19.210993 0.889345 0.507926
v 19.315540 0.891423 0.438069
v 19.385399 0.894030 0.333520
v 19.409929 0.897142 0.210196
v 19.239450 0.946844 0.147327
v 19.203836 0.948120 0.094028
v 19.150539 0.949467 0.058415
v 19.087669 0.949578 0.045909
v 19.024799 0.949467 0.058415
v 18.971502 0.948120 0.094028
v 18.935886 0.946844 0.147326
v 18.923382 0.945207 0.210196
v 18.935886 0.943585 0.273066
v 18.971502 0.942221 0.326365
v 19.024799 0.941316 0.361978
v 19.087669 0.940999 0.374483
v 19.150539 0.941316 0.361978
v 19.203836 0.942221 0.326365
v 19.239450 0.943585 0.273066
v 19.251957 0.945207 0.210196
v 19.087669 0.962012 0.210196
vt 0.312500 0.187500
vt 0.375000 0.187500
vt 0.437500 0.187500
vt 0.500000 0.187500
vt 0.562500 0.187500
vt 0.625000 0.187500
vt 0.687500 0.187500
vt 0.750000 0.187500
vt 0.812500 0.187500
vt 0.875000 0.187500
vt 0.937500 0.187500
vt 1.000000 0.187500
vt 0.312500 0.250000
vt 0.375000 0.250000
vt 0.437500 0.250000
vt 0.500000 0.250000
vt 0.562500 0.250000
vt 0.625000 0.250000
vt 0.687500 0.250000
vt 0.750000 0.250000
vt 0.812500 0.250000
vt 0.875000 0.250000
vt 0.937500 0.250000
vt 1.000000 0.250000
vt 0.312500 0.312500
vt 0.375000 0.312500
vt 0.437500 0.312500
vt 0.500000 0.312500
vt 0.562500 0.312500
vt 0.625000 0.312500
vt 0.687500 0.312500
vt 0.750000 0.312500
vt 0.812500 0.312500
vt 0.875000 0.312500
vt 0.937500 0.312500
vt 1.000000 0.312500
vt 0.312500 0.375000
vt 0.375000 0.375000
vt 0.437500 0.375000
vt 0.500000 0.375000
vt 0.562500 0.375000
vt 0.625000 0.375000
vt 0.687500 0.375000
vt 0.750000 0.375000
vt 0.812500 0.375000
vt 0.875000 0.375000
vt 0.937500 0.375000
vt 1.000000 0.375000
vt 0.312500 0.437500
vt 0.375000 0.437500
vt 0.437500 0.437500
vt 0.500000 0.437500
vt 0.562500 0.437500
vt 0.625000 0.437500
vt 0.687500 0.437500
vt 0.750000 0.437500
vt 0.812500 0.437500
vt 0.875000 0.437500
vt 0.937500 0.437500
vt 1.000000 0.437500
vt 0.312500 0.500000
vt 0.375000 0.500000
vt 0.437500 0.500000
vt 0.500000 0.500000
vt 0.562500 0.500000
vt 0.625000 0.500000
vt 0.687500 0.500000
vt 0.750000 0.500000
vt 0.812500 0.500000
vt 0.875000 0.500000
vt 0.937500 0.500000
vt 1.000000 0.500000
vt 0.312500 0.562500
vt 0.375000 0.562500
vt 0.437500 0.562500
vt 0.500000 0.562500
vt 0.562500 0.562500
vt 0.625000 0.562500
vt 0.687500 0.562500
vt 0.750000 0.562500
vt 0.812500 0.562500
vt 0.875000 0.562500
vt 0.937500 0.562500
vt 1.000000 0.562500
vt 0.312500 0.625000
vt 0.375000 0.625000
vt 0.437500 0.625000
vt 0.500000 0.625000
vt 0.562500 0.625000
vt 0.625000 0.625000
vt 0.687500 0.625000
vt 0.750000 0.625000
vt 0.812500 0.625000
vt 0.875000 0.625000
vt 0.937500 0.625000
vt 1.000000 0.625000
vt 0.000000 0.687500
vt 0.062500 0.687500
vt 0.125000 0.687500
vt 0.187500 0.687500
vt 0.250000 0.687500
vt 0.312500 0.687500
vt 0.375000 0.687500
vt 0.437500 0.687500
vt 0.500000 0.687500
vt 0.562500 0.687500
vt 0.625000 0.687500
vt 0.687500 0.687500
vt 0.750000 0.687500
vt 0.812500 0.687500
vt 0.875000 0.687500
vt 0.937500 0.687500
vt 1.000000 0.687500
vt 0.000000 0.750000
vt 0.062500 0.750000
vt 0.125000 0.750000
vt 0.187500 0.750000
vt 0.250000 0.750000
vt 0.312500 0.750000
vt 0.375000 0.750000
vt 0.437500 0.750000
vt 0.500000 0.750000
vt 0.562500 0.750000
vt 0.625000 0.750000
vt 0.687500 0.750000
vt 0.750000 0.750000
vt 0.812500 0.750000
vt 0.875000 0.750000
vt 0.937500 0.750000
vt 1.000000 0.750000
vt 0.000000 0.812500
vt 0.062500 0.812500
vt 0.125000 0.812500
vt 0.187500 0.812500
vt 0.250000 0.812500
vt 0.312500 0.812500
vt 0.375000 0.812500
vt 0.437500 0.812500
vt 0.500000 0.812500
vt 0.562500 0.812500
vt 0.625000 0.812500
vt 0.687500 0.812500
vt 0.750000 0.812500
vt 0.812500 0.812500
vt 0.875000 0.812500
vt 0.937500 0.812500
vt 1.000000 0.812500
vt 0.000000 0.875000
vt 0.062500 0.875000
vt 0.125000 0.875000
vt 0.187500 0.875000
vt 0.250000 0.875000
vt 0.312500 0.875000
vt 0.375000 0.875000
vt 0.437500 0.875000
vt 0.500000 0.875000
vt 0.562500 0.875000
vt 0.625000 0.875000
vt 0.687500 0.875000
vt 0.750000 0.875000
vt 0.812500 0.875000
vt 0.875000 0.875000
vt 0.937500 0.875000
vt 1.000000 0.875000
vt 0.000000 0.937500
vt 0.062500 0.937500
vt 0.125000 0.937500
vt 0.187500 0.937500
vt 0.250000 0.937500
vt 0.312500 0.937500
vt 0.375000 0.937500
vt 0.437500 0.937500
vt 0.500000 0.937500
vt 0.562500 0.937500
vt 0.625000 0.937500
vt 0.687500 0.937500
vt 0.750000 0.937500
vt 0.812500 0.937500
vt 0.875000 0.937500
vt 0.937500 0.937500
vt 1.000000 0.937500
vt 0.031250 1.000000
vt 0.093750 1.000000
vt 0.156250 1.000000
vt 0.218750 1.000000
vt 0.281250 1.000000
vt 0.343750 1.000000
vt 0.406250 1.000000
vt 0.468750 1.000000
vt 0.531250 1.000000
vt 0.593750 1.000000
vt 0.656250 1.000000
vt 0.718750 1.000000
vt 0.781250 1.000000
vt 0.843750 1.000000
vt 0.906250 1.000000
vt 0.968750 1.000000
vn -0.386819 -0.869689 -0.306614
vn -0.428164 -0.876066 -0.221777
vn -0.516054 -0.818070 -0.253869
vn -0.466954 -0.810204 -0.354293
vn -0.471015 -0.881071 -0.043123
vn -0.567459 -0.822469 -0.039184
vn -0.441636 -0.886246 0.139736
vn -0.532185 -0.826874 0.181819
vn -0.342199 -0.890621 0.299491
vn -0.412729 -0.830285 0.374541
vn -0.186573 -0.893490 0.408493
vn -0.225092 -0.832592 0.506087
vn -0.000000 -0.894395 0.447278
vn -0.000000 -0.833279 0.552853
vn 0.186572 -0.893490 0.408492
vn 0.225093 -0.832592 0.506087
vn 0.342200 -0.890620 0.299492
vn 0.412730 -0.830284 0.374543
vn 0.441641 -0.886243 0.139738
vn 0.532186 -0.826873 0.181820
vn 0.471020 -0.881068 -0.043124
vn 0.567462 -0.822467 -0.039185
vn 0.464911 -0.874715 -0.136867
vn 0.560677 -0.814019 -0.151704
vn -0.661348 -0.685506 -0.304467
vn -0.597145 -0.676543 -0.430938
vn -0.725405 -0.687678 -0.029776
vn -0.678895 -0.689519 0.252322
vn -0.525255 -0.690968 0.496659
vn -0.286032 -0.692082 0.662728
vn -0.000000 -0.692297 0.721613
vn 0.286033 -0.692081 0.662729
vn 0.525256 -0.690966 0.496662
vn 0.678897 -0.689516 0.252322
vn 0.725407 -0.687676 -0.029777
vn 0.714372 -0.677890 -0.173602
vn -0.794054 -0.497827 -0.348779
vn -0.715338 -0.488927 -0.499242
vn -0.867242 -0.497518 -0.019172
vn -0.808087 -0.496992 0.316218
vn -0.622789 -0.496415 0.604737
vn -0.338503 -0.496044 0.799598
vn -0.000000 -0.495789 0.868443
vn 0.338504 -0.496042 0.799598
vn 0.622789 -0.496413 0.604737
vn 0.808090 -0.496987 0.316220
vn 0.867242 -0.497517 -0.019171
vn 0.851779 -0.488119 -0.190296
vn -0.888663 -0.260839 -0.377150
vn -0.799303 -0.254348 -0.544447
vn -0.965633 -0.259764 -0.008678
vn -0.895348 -0.258678 0.362544
vn -0.687213 -0.257646 0.679232
vn -0.372603 -0.256881 0.891728
vn -0.000000 -0.256663 0.966501
vn 0.372601 -0.256887 0.891727
vn 0.687210 -0.257655 0.679232
vn 0.895348 -0.258674 0.362545
vn 0.965634 -0.259761 -0.008677
vn 0.947007 -0.252719 -0.198271
vn -0.924129 0.000207 -0.382080
vn -0.831408 0.002586 -0.555657
vn -1.000000 -0.000026 0.000658
vn -0.923655 -0.000230 0.383225
vn -0.706809 -0.000369 0.707405
vn -0.382472 -0.000445 0.923967
vn -0.000000 -0.000473 1.000000
vn 0.382474 -0.000448 0.923966
vn 0.706811 -0.000368 0.707402
vn 0.923655 -0.000228 0.383225
vn 1.000000 -0.000027 0.000659
vn 0.980762 0.002921 -0.195185
vn -0.897465 0.250202 -0.363255
vn -0.809121 0.248566 -0.532483
vn -0.968761 0.247864 0.008097
vn -0.892823 0.245611 0.377547
vn -0.682054 0.243803 0.689465
vn -0.368690 0.242636 0.897327
vn -0.000000 0.242216 0.970223
vn 0.368689 0.242640 0.897326
vn 0.682052 0.243813 0.689464
vn 0.892823 0.245612 0.377548
vn 0.968762 0.247859 0.008099
vn 0.951919 0.246797 -0.181495
vn -0.824187 0.462223 -0.327210
vn -0.745517 0.458228 -0.483974
vn -0.888725 0.458242 0.013490
vn -0.818275 0.454629 0.351765
vn -0.624643 0.451686 0.637025
vn -0.337579 0.449802 0.826873
vn -0.000000 0.449232 0.893415
vn 0.337579 0.449802 0.826873
vn 0.624642 0.451687 0.637025
vn 0.818275 0.454628 0.351767
vn 0.888727 0.458239 0.013491
vn 0.876017 0.454771 -0.160554
vn -0.725578 0.627474 -0.282514
vn -0.587077 0.654356 -0.476612
vn -0.782162 0.622838 0.017211
vn -0.719887 0.618695 0.314610
vn -0.549324 0.615417 0.565248
vn -0.296848 0.613343 0.731910
vn -0.000000 0.612706 0.790311
vn 0.296849 0.613343 0.731910
vn 0.549325 0.615415 0.565249
vn 0.719887 0.618695 0.314611
vn 0.782162 0.622837 0.017213
vn 0.729288 0.650007 -0.213613
vn 0.510171 0.708585 -0.487476
vn 0.473185 0.756189 -0.451967
vn 0.615954 0.752042 -0.234592
vn 0.276959 0.711553 -0.645745
vn 0.256709 0.759028 -0.598312
vn 0.000000 0.712633 -0.701537
vn 0.000000 0.759940 -0.649994
vn -0.276960 0.711551 -0.645747
vn -0.256709 0.759027 -0.598313
vn -0.473187 0.756186 -0.451970
vn -0.615955 0.752041 -0.234592
vn -0.664053 0.747422 0.019850
vn -0.611295 0.743088 0.272286
vn -0.466477 0.739678 0.485052
vn -0.252033 0.737521 0.626532
vn 0.000000 0.736874 0.676030
vn 0.252032 0.737520 0.626533
vn 0.466477 0.739678 0.485052
vn 0.611293 0.743089 0.272285
vn 0.664054 0.747421 0.019851
vn 0.383563 0.850284 -0.360411
vn 0.499253 0.846591 -0.184474
vn 0.208146 0.852870 -0.478840
vn 0.000000 0.853651 -0.520846
vn -0.208144 0.852871 -0.478840
vn -0.383561 0.850285 -0.360411
vn -0.499249 0.846593 -0.184472
vn -0.538584 0.842289 0.021809
vn -0.496109 0.838211 0.226446
vn -0.378310 0.835152 0.399252
vn -0.204220 0.833201 0.513878
vn -0.000000 0.832777 0.553609
vn 0.204219 0.833202 0.513877
vn 0.378311 0.835153 0.399251
vn 0.496112 0.838210 0.226447
vn 0.538589 0.842287 0.021811
vn 0.285495 0.922296 -0.260507
vn 0.371187 0.919408 -0.130037
vn 0.154934 0.924481 -0.348326
vn 0.000001 0.925179 -0.379530
vn -0.154933 0.924481 -0.348325
vn -0.285495 0.922295 -0.260507
vn -0.371188 0.919407 -0.130036
vn -0.400573 0.915968 0.023331
vn -0.369089 0.912677 0.175483
vn -0.281015 0.910163 0.304360
vn -0.151526 0.908299 0.389913
vn -0.000000 0.907813 0.419374
vn 0.151526 0.908301 0.389910
vn 0.281014 0.910163 0.304359
vn 0.369090 0.912676 0.175485
vn 0.400572 0.915968 0.023331
vn 0.180234 0.971637 -0.153093
vn 0.233406 0.969720 -0.071873
vn 0.097651 0.973173 -0.208323
vn 0.000001 0.973459 -0.228862
vn -0.097650 0.973174 -0.208321
vn -0.180231 0.971637 -0.153092
vn -0.233408 0.969719 -0.071873
vn -0.252224 0.967356 0.024595
vn -0.232400 0.965120 0.120553
vn -0.177151 0.963176 0.202260
vn -0.095731 0.961664 0.256978
vn -0.000000 0.961166 0.275970
vn 0.095733 0.961663 0.256980
vn 0.177156 0.963175 0.202264
vn 0.232399 0.965120 0.120554
vn 0.252222 0.967357 0.024595
vn -0.000000 0.999660 0.026087
s 1
g pSphere8
usemtl initialShadingGroup
f 2/1/1 3/2/2 15/14/3 14/13/4
f 3/2/2 4/3/5 16/15/6 15/14/3
f 4/3/5 5/4/7 17/16/8 16/15/6
f 5/4/7 6/5/9 18/17/10 17/16/8
f 6/5/9 7/6/11 19/18/12 18/17/10
f 7/6/11 8/7/13 20/19/14 19/18/12
f 8/7/13 9/8/15 21/20/16 20/19/14
f 9/8/15 10/9/17 22/21/18 21/20/16
f 10/9/17 11/10/19 23/22/20 22/21/18
f 11/10/19 12/11/21 24/23/22 23/22/20
f 12/11/21 1/12/23 13/24/24 24/23/22
f 14/13/4 15/14/3 27/26/25 26/25/26
f 15/14/3 16/15/6 28/27/27 27/26/25
f 16/15/6 17/16/8 29/28/28 28/27/27
f 17/16/8 18/17/10 30/29/29 29/28/28
f 18/17/10 19/18/12 31/30/30 30/29/29
f 19/18/12 20/19/14 32/31/31 31/30/30
f 20/19/14 21/20/16 33/32/32 32/31/31
f 21/20/16 22/21/18 34/33/33 33/32/32
f 22/21/18 23/22/20 35/34/34 34/33/33
f 23/22/20 24/23/22 36/35/35 35/34/34
f 24/23/22 13/24/24 25/36/36 36/35/35
f 26/25/26 27/26/25 39/38/37 38/37/38
f 27/26/25 28/27/27 40/39/39 39/38/37
f 28/27/27 29/28/28 41/40/40 40/39/39
f 29/28/28 30/29/29 42/41/41 41/40/40
f 30/29/29 31/30/30 43/42/42 42/41/41
f 31/30/30 32/31/31 44/43/43 43/42/42
f 32/31/31 33/32/32 45/44/44 44/43/43
f 33/32/32 34/33/33 46/45/45 45/44/44
f 34/33/33 35/34/34 47/46/46 46/45/45
f 35/34/34 36/35/35 48/47/47 47/46/46
f 36/35/35 25/36/36 37/48/48 48/47/47
f 38/37/38 39/38/37 51/50/49 50/49/50
f 39/38/37 40/39/39 52/51/51 51/50/49
f 40/39/39 41/40/40 53/52/52 52/51/51
f 41/40/40 42/41/41 54/53/53 53/52/52
f 42/41/41 43/42/42 55/54/54 54/53/53
f 43/42/42 44/43/43 56/55/55 55/54/54
f 44/43/43 45/44/44 57/56/56 56/55/55
f 45/44/44 46/45/45 58/57/57 57/56/56
f 46/45/45 47/46/46 59/58/58 58/57/57
f 47/46/46 48/47/47 60/59/59 59/58/58
f 48/47/47 37/48/48 49/60/60 60/59/59
f 50/49/50 51/50/49 63/62/61 62/61/62
f 51/50/49 52/51/51 64/63/63 63/62/61
f 52/51/51 53/52/52 65/64/64 64/63/63
f 53/52/52 54/53/53 66/65/65 65/64/64
f 54/53/53 55/54/54 67/66/66 66/65/65
f 55/54/54 56/55/55 68/67/67 67/66/66
f 56/55/55 57/56/56 69/68/68 68/67/67
f 57/56/56 58/57/57 70/69/69 69/68/68
f 58/57/57 59/58/58 71/70/70 70/69/69
f 59/58/58 60/59/59 72/71/71 71/70/70
f 60/59/59 49/60/60 61/72/72 72/71/71
f 62/61/62 63/62/61 75/74/73 74/73/74
f 63/62/61 64/63/63 76/75/75 75/74/73
f 64/63/63 65/64/64 77/76/76 76/75/75
f 65/64/64 66/65/65 78/77/77 77/76/76
f 66/65/65 67/66/66 79/78/78 78/77/77
f 67/66/66 68/67/67 80/79/79 79/78/78
f 68/67/67 69/68/68 81/80/80 80/79/79
f 69/68/68 70/69/69 82/81/81 81/80/80
f 70/69/69 71/70/70 83/82/82 82/81/81
f 71/70/70 72/71/71 84/83/83 83/82/82
f 72/71/71 61/72/72 73/84/84 84/83/83
f 74/73/74 75/74/73 87/86/85 86/85/86
f 75/74/73 76/75/75 88/87/87 87/86/85
f 76/75/75 77/76/76 89/88/88 88/87/87
f 77/76/76 78/77/77 90/89/89 89/88/88
f 78/77/77 79/78/78 91/90/90 90/89/89
f 79/78/78 80/79/79 92/91/91 91/90/90
f 80/79/79 81/80/80 93/92/92 92/91/91
f 81/80/80 82/81/81 94/93/93 93/92/92
f 82/81/81 83/82/82 95/94/94 94/93/93
f 83/82/82 84/83/83 96/95/95 95/94/94
f 84/83/83 73/84/84 85/96/96 96/95/95
f 86/85/86 87/86/85 103/103/97 102/102/98
f 87/86/85 88/87/87 104/104/99 103/103/97
f 88/87/87 89/88/88 105/105/100 104/104/99
f 89/88/88 90/89/89 106/106/101 105/105/100
f 90/89/89 91/90/90 107/107/102 106/106/101
f 91/90/90 92/91/91 108/108/103 107/107/102
f 92/91/91 93/92/92 109/109/104 108/108/103
f 93/92/92 94/93/93 110/110/105 109/109/104
f 94/93/93 95/94/94 111/111/106 110/110/105
f 95/94/94 96/95/95 112/112/107 111/111/106
f 96/95/95 85/96/96 97/113/108 112/112/107
f 97/97/108 98/98/109 114/115/110 113/114/111
f 98/98/109 99/99/112 115/116/113 114/115/110
f 99/99/112 100/100/114 116/117/115 115/116/113
f 100/100/114 101/101/116 117/118/117 116/117/115
f 101/101/116 102/102/98 118/119/118 117/118/117
f 102/102/98 103/103/97 119/120/119 118/119/118
f 103/103/97 104/104/99 120/121/120 119/120/119
f 104/104/99 105/105/100 121/122/121 120/121/120
f 105/105/100 106/106/101 122/123/122 121/122/121
f 106/106/101 107/107/102 123/124/123 122/123/122
f 107/107/102 108/108/103 124/125/124 123/124/123
f 108/108/103 109/109/104 125/126/125 124/125/124
f 109/109/104 110/110/105 126/127/126 125/126/125
f 110/110/105 111/111/106 127/128/127 126/127/126
f 111/111/106 112/112/107 128/129/128 127/128/127
f 112/112/107 97/113/108 113/130/111 128/129/128
f 113/114/111 114/115/110 130/132/129 129/131/130
f 114/115/110 115/116/113 131/133/131 130/132/129
f 115/116/113 116/117/115 132/134/132 131/133/131
f 116/117/115 117/118/117 133/135/133 132/134/132
f 117/118/117 118/119/118 134/136/134 133/135/133
f 118/119/118 119/120/119 135/137/135 134/136/134
f 119/120/119 120/121/120 136/138/136 135/137/135
f 120/121/120 121/122/121 137/139/137 136/138/136
f 121/122/121 122/123/122 138/140/138 137/139/137
f 122/123/122 123/124/123 139/141/139 138/140/138
f 123/124/123 124/125/124 140/142/140 139/141/139
f 124/125/124 125/126/125 141/143/141 140/142/140
f 125/126/125 126/127/126 142/144/142 141/143/141
f 126/127/126 127/128/127 143/145/143 142/144/142
f 127/128/127 128/129/128 144/146/144 143/145/143
f 128/129/128 113/130/111 129/147/130 144/146/144
f 129/131/130 130/132/129 146/149/145 145/148/146
f 130/132/129 131/133/131 147/150/147 146/149/145
f 131/133/131 132/134/132 148/151/148 147/150/147
f 132/134/132 133/135/133 149/152/149 148/151/148
f 133/135/133 134/136/134 150/153/150 149/152/149
f 134/136/134 135/137/135 151/154/151 150/153/150
f 135/137/135 136/138/136 152/155/152 151/154/151
f 136/138/136 137/139/137 153/156/153 152/155/152
f 137/139/137 138/140/138 154/157/154 153/156/153
f 138/140/138 139/141/139 155/158/155 154/157/154
f 139/141/139 140/142/140 156/159/156 155/158/155
f 140/142/140 141/143/141 157/160/157 156/159/156
f 141/143/141 142/144/142 158/161/158 157/160/157
f 142/144/142 143/145/143 159/162/159 158/161/158
f 143/145/143 144/146/144 160/163/160 159/162/159
f 144/146/144 129/147/130 145/164/146 160/163/160
f 145/148/146 146/149/145 162/166/161 161/165/162
f 146/149/145 147/150/147 163/167/163 162/166/161
f 147/150/147 148/151/148 164/168/164 163/167/163
f 148/151/148 149/152/149 165/169/165 164/168/164
f 149/152/149 150/153/150 166/170/166 165/169/165
f 150/153/150 151/154/151 167/171/167 166/170/166
f 151/154/151 152/155/152 168/172/168 167/171/167
f 152/155/152 153/156/153 169/173/169 168/172/168
f 153/156/153 154/157/154 170/174/170 169/173/169
f 154/157/154 155/158/155 171/175/171 170/174/170
f 155/158/155 156/159/156 172/176/172 171/175/171
f 156/159/156 157/160/157 173/177/173 172/176/172
f 157/160/157 158/161/158 174/178/174 173/177/173
f 158/161/158 159/162/159 175/179/175 174/178/174
f 159/162/159 160/163/160 176/180/176 175/179/175
f 160/163/160 145/164/146 161/181/162 176/180/176
f 161/165/162 162/166/161 177/182/177
f 162/166/161 163/167/163 177/183/177
f 163/167/163 164/168/164 177/184/177
f 164/168/164 165/169/165 177/185/177
f 165/169/165 166/170/166 177/186/177
f 166/170/166 167/171/167 177/187/177
f 167/171/167 168/172/168 177/188/177
f 168/172/168 169/173/169 177/189/177
f 169/173/169 170/174/170 177/190/177
f 170/174/170 171/175/171 177/191/177
f 171/175/171 172/176/172 177/192/177
f 172/176/172 173/177/173 177/193/177
f 173/177/173 174/178/174 177/194/177
f 174/178/174 175/179/175 177/195/177
f 175/179/175 176/180/176 177/196/177
f 176/180/176 161/181/162 177/197/177
